<svg xmlns="http://www.w3.org/2000/svg" width="900" height="320" viewBox="0 0 900 320" style="background-color:#ffffff; font-family:sans-serif;">
<text x="450.0" y="28" font-size="16" font-weight="bold" text-anchor="middle" fill="#111827">2019 Out-Of-Sample Probability Integral Transform (PIT) Histograms (10 Bins)</text>
<g transform="translate(40, 50)">
<rect x="0" y="0" width="260" height="220" fill="#f9fafb" stroke="#e5e7eb" stroke-width="1"/>
<text x="130.0" y="-10" font-size="13" font-weight="bold" text-anchor="middle" fill="#374151">KORD (N=365)</text>
<line x1="35" y1="156.0" x2="245" y2="156.0" stroke="#e5e7eb" stroke-dasharray="3,3"/>
<text x="30" y="160.0" font-size="9" text-anchor="end" fill="#9ca3af">0.05</text>
<line x1="35" y1="122.0" x2="245" y2="122.0" stroke="#e5e7eb" stroke-dasharray="3,3"/>
<text x="30" y="126.0" font-size="9" text-anchor="end" fill="#9ca3af">0.10</text>
<line x1="35" y1="88.0" x2="245" y2="88.0" stroke="#e5e7eb" stroke-dasharray="3,3"/>
<text x="30" y="92.0" font-size="9" text-anchor="end" fill="#9ca3af">0.15</text>
<line x1="35" y1="53.99999999999999" x2="245" y2="53.99999999999999" stroke="#e5e7eb" stroke-dasharray="3,3"/>
<text x="30" y="57.99999999999999" font-size="9" text-anchor="end" fill="#9ca3af">0.20</text>
<line x1="35" y1="122.0" x2="245" y2="122.0" stroke="#ef4444" stroke-width="1.5" stroke-dasharray="4,4"/>
<rect x="36.0" y="124.8" width="19.0" height="65.2" fill="#3b82f6" opacity="0.85"/>
<rect x="57.0" y="121.1" width="19.0" height="68.9" fill="#3b82f6" opacity="0.85"/>
<rect x="78.0" y="124.8" width="19.0" height="65.2" fill="#3b82f6" opacity="0.85"/>
<rect x="99.0" y="111.8" width="19.0" height="78.2" fill="#3b82f6" opacity="0.85"/>
<rect x="120.0" y="117.3" width="19.0" height="72.7" fill="#3b82f6" opacity="0.85"/>
<rect x="141.0" y="111.8" width="19.0" height="78.2" fill="#3b82f6" opacity="0.85"/>
<rect x="162.0" y="134.1" width="19.0" height="55.9" fill="#3b82f6" opacity="0.85"/>
<rect x="183.0" y="126.7" width="19.0" height="63.3" fill="#3b82f6" opacity="0.85"/>
<rect x="204.0" y="128.5" width="19.0" height="61.5" fill="#3b82f6" opacity="0.85"/>
<rect x="225.0" y="119.2" width="19.0" height="70.8" fill="#3b82f6" opacity="0.85"/>
<text x="35.0" y="206" font-size="10" text-anchor="middle" fill="#6b7280">0.0</text>
<text x="140.0" y="206" font-size="10" text-anchor="middle" fill="#6b7280">0.5</text>
<text x="245.0" y="206" font-size="10" text-anchor="middle" fill="#6b7280">1.0</text>
<text x="140.0" y="218" font-size="10" text-anchor="middle" fill="#6b7280">PIT Quantile U</text>
<rect x="40" y="25" width="95" height="32" fill="#ffffff" stroke="#d1d5db" rx="3" opacity="0.9"/>
<text x="45" y="38" font-size="9" fill="#1f2937">Mean: 0.4948</text>
<text x="45" y="50" font-size="9" fill="#1f2937">Std:  0.2844</text>
</g>
<g transform="translate(330, 50)">
<rect x="0" y="0" width="260" height="220" fill="#f9fafb" stroke="#e5e7eb" stroke-width="1"/>
<text x="130.0" y="-10" font-size="13" font-weight="bold" text-anchor="middle" fill="#374151">KMIA (N=365)</text>
<line x1="35" y1="156.0" x2="245" y2="156.0" stroke="#e5e7eb" stroke-dasharray="3,3"/>
<text x="30" y="160.0" font-size="9" text-anchor="end" fill="#9ca3af">0.05</text>
<line x1="35" y1="122.0" x2="245" y2="122.0" stroke="#e5e7eb" stroke-dasharray="3,3"/>
<text x="30" y="126.0" font-size="9" text-anchor="end" fill="#9ca3af">0.10</text>
<line x1="35" y1="88.0" x2="245" y2="88.0" stroke="#e5e7eb" stroke-dasharray="3,3"/>
<text x="30" y="92.0" font-size="9" text-anchor="end" fill="#9ca3af">0.15</text>
<line x1="35" y1="53.99999999999999" x2="245" y2="53.99999999999999" stroke="#e5e7eb" stroke-dasharray="3,3"/>
<text x="30" y="57.99999999999999" font-size="9" text-anchor="end" fill="#9ca3af">0.20</text>
<line x1="35" y1="122.0" x2="245" y2="122.0" stroke="#ef4444" stroke-width="1.5" stroke-dasharray="4,4"/>
<rect x="36.0" y="126.7" width="19.0" height="63.3" fill="#3b82f6" opacity="0.85"/>
<rect x="57.0" y="139.7" width="19.0" height="50.3" fill="#3b82f6" opacity="0.85"/>
<rect x="78.0" y="141.6" width="19.0" height="48.4" fill="#3b82f6" opacity="0.85"/>
<rect x="99.0" y="117.3" width="19.0" height="72.7" fill="#3b82f6" opacity="0.85"/>
<rect x="120.0" y="130.4" width="19.0" height="59.6" fill="#3b82f6" opacity="0.85"/>
<rect x="141.0" y="98.7" width="19.0" height="91.3" fill="#3b82f6" opacity="0.85"/>
<rect x="162.0" y="98.7" width="19.0" height="91.3" fill="#3b82f6" opacity="0.85"/>
<rect x="183.0" y="115.5" width="19.0" height="74.5" fill="#3b82f6" opacity="0.85"/>
<rect x="204.0" y="119.2" width="19.0" height="70.8" fill="#3b82f6" opacity="0.85"/>
<rect x="225.0" y="132.2" width="19.0" height="57.8" fill="#3b82f6" opacity="0.85"/>
<text x="35.0" y="206" font-size="10" text-anchor="middle" fill="#6b7280">0.0</text>
<text x="140.0" y="206" font-size="10" text-anchor="middle" fill="#6b7280">0.5</text>
<text x="245.0" y="206" font-size="10" text-anchor="middle" fill="#6b7280">1.0</text>
<text x="140.0" y="218" font-size="10" text-anchor="middle" fill="#6b7280">PIT Quantile U</text>
<rect x="40" y="25" width="95" height="32" fill="#ffffff" stroke="#d1d5db" rx="3" opacity="0.9"/>
<text x="45" y="38" font-size="9" fill="#1f2937">Mean: 0.5221</text>
<text x="45" y="50" font-size="9" fill="#1f2937">Std:  0.2791</text>
</g>
<g transform="translate(620, 50)">
<rect x="0" y="0" width="260" height="220" fill="#f9fafb" stroke="#e5e7eb" stroke-width="1"/>
<text x="130.0" y="-10" font-size="13" font-weight="bold" text-anchor="middle" fill="#374151">KSFO (N=365)</text>
<line x1="35" y1="156.0" x2="245" y2="156.0" stroke="#e5e7eb" stroke-dasharray="3,3"/>
<text x="30" y="160.0" font-size="9" text-anchor="end" fill="#9ca3af">0.05</text>
<line x1="35" y1="122.0" x2="245" y2="122.0" stroke="#e5e7eb" stroke-dasharray="3,3"/>
<text x="30" y="126.0" font-size="9" text-anchor="end" fill="#9ca3af">0.10</text>
<line x1="35" y1="88.0" x2="245" y2="88.0" stroke="#e5e7eb" stroke-dasharray="3,3"/>
<text x="30" y="92.0" font-size="9" text-anchor="end" fill="#9ca3af">0.15</text>
<line x1="35" y1="53.99999999999999" x2="245" y2="53.99999999999999" stroke="#e5e7eb" stroke-dasharray="3,3"/>
<text x="30" y="57.99999999999999" font-size="9" text-anchor="end" fill="#9ca3af">0.20</text>
<line x1="35" y1="122.0" x2="245" y2="122.0" stroke="#ef4444" stroke-width="1.5" stroke-dasharray="4,4"/>
<rect x="36.0" y="126.7" width="19.0" height="63.3" fill="#3b82f6" opacity="0.85"/>
<rect x="57.0" y="134.1" width="19.0" height="55.9" fill="#3b82f6" opacity="0.85"/>
<rect x="78.0" y="115.5" width="19.0" height="74.5" fill="#3b82f6" opacity="0.85"/>
<rect x="99.0" y="100.6" width="19.0" height="89.4" fill="#3b82f6" opacity="0.85"/>
<rect x="120.0" y="126.7" width="19.0" height="63.3" fill="#3b82f6" opacity="0.85"/>
<rect x="141.0" y="108.0" width="19.0" height="82.0" fill="#3b82f6" opacity="0.85"/>
<rect x="162.0" y="134.1" width="19.0" height="55.9" fill="#3b82f6" opacity="0.85"/>
<rect x="183.0" y="122.9" width="19.0" height="67.1" fill="#3b82f6" opacity="0.85"/>
<rect x="204.0" y="124.8" width="19.0" height="65.2" fill="#3b82f6" opacity="0.85"/>
<rect x="225.0" y="126.7" width="19.0" height="63.3" fill="#3b82f6" opacity="0.85"/>
<text x="35.0" y="206" font-size="10" text-anchor="middle" fill="#6b7280">0.0</text>
<text x="140.0" y="206" font-size="10" text-anchor="middle" fill="#6b7280">0.5</text>
<text x="245.0" y="206" font-size="10" text-anchor="middle" fill="#6b7280">1.0</text>
<text x="140.0" y="218" font-size="10" text-anchor="middle" fill="#6b7280">PIT Quantile U</text>
<rect x="40" y="25" width="95" height="32" fill="#ffffff" stroke="#d1d5db" rx="3" opacity="0.9"/>
<text x="45" y="38" font-size="9" fill="#1f2937">Mean: 0.4956</text>
<text x="45" y="50" font-size="9" fill="#1f2937">Std:  0.2840</text>
</g>
</svg>